<svg width="37" height="37" fill="none" xmlns="http://www.w3.org/2000/svg"><path d="M6.66 2.96a3.711 3.711 0 00-3.7 3.7v23.68c0 2.035 1.665 3.7 3.7 3.7h12.456a.74.74 0 00.241 0h4.199a.74.74 0 00.241 0h6.543c2.035 0 3.7-1.665 3.7-3.7V6.66c0-2.035-1.665-3.7-3.7-3.7H6.66zm0 1.48h23.68a2.21 2.21 0 012.22 2.22v23.68a2.21 2.21 0 01-2.22 2.22h-5.92V22.2h2.827l1.036-5.18H24.42v-1.48c0-.412.04-.445.178-.535.138-.09.566-.205 1.302-.205h2.22v-4.167l-.422-.2s-1.7-.813-4.018-.813c-1.665 0-3.033.663-3.908 1.758-.875 1.094-1.272 2.559-1.272 4.162v1.48h-2.22v5.18h2.22v10.36H6.66a2.21 2.21 0 01-2.22-2.22V6.66a2.21 2.21 0 012.22-2.22zm17.02 6.66c1.538 0 2.507.34 2.96.519v1.701h-.74c-.852 0-1.534.07-2.109.444-.574.373-.851 1.082-.851 1.776v2.96h3.537l-.444 2.22H22.94v11.84h-2.96V20.72h-2.22V18.5h2.22v-2.96c0-1.357.343-2.482.948-3.237.605-.756 1.457-1.203 2.752-1.203z" fill="#000"/></svg>