<svg width="232" height="230" fill="none" xmlns="http://www.w3.org/2000/svg"><path d="M114.632 2h2.736C179.573 2 230 52.427 230 114.632c0 62.205-50.427 112.632-112.632 112.632h-2.736C52.427 227.264 2 176.837 2 114.632 2 52.427 52.427 2 114.632 2z" fill="#EC5F54" stroke="#EC5F54" stroke-width="4" stroke-miterlimit="10"/><path d="M55.556 211.873c0-17.114 11.708-39.636 36.246-48.717M138.959 164.325c24.537 9.086 36.245 31.603 36.245 48.717" stroke="#1D1D1B" stroke-width="5" stroke-miterlimit="10"/><path d="M151.815 136.455c0 11.07-4.935 20.982-12.719 27.667a36.296 36.296 0 01-23.718 8.776 36.298 36.298 0 01-23.719-8.776c-7.788-6.68-12.719-16.597-12.719-27.667 0-5.49 1.215-10.698 3.393-15.366 24.399-4.729 56.915-2.375 65.979-.252a36.303 36.303 0 013.508 15.618h-.005z" stroke="#1D1D1B" stroke-width="5" stroke-miterlimit="10"/><path d="M151.82 102.869s-1.943 1.474-1.943 18.196a17.098 17.098 0 00-1.323-.363c-9.077-2.118-41.639-4.473-66.074.252-.187.04-.378.07-.56.111 0 0 1.939-10.844-2.59-17.462 0 0 .202-1.962 10.309-3.748 3.746-.665 8.855-1.304 15.812-1.812 1.807-.13 3.746-.252 5.81-.362l1.02 2.39 3.08 7.211 3.483-7.211 1.045-2.159s7.997-.886 18.013.845c1.671.287 3.397.65 5.149 1.097 1.54.393 3.1.861 4.665 1.404a51.568 51.568 0 014.099 1.616l.005-.005z" stroke="#1D1D1B" stroke-width="5" stroke-miterlimit="10"/><path d="M83.368 101.573s-5.807-65.491-5.591-79.237c5.159-8.206 30.298-8.242 37.603-11.565 2.741 1.25 7.99 2.033 13.751 2.96 9.604 1.542 20.63 3.48 23.853 8.61.216 13.746-5.591 79.237-5.591 79.237M126.098 97.68l3.118-83.792M144.026 16.615l-5.067 82.234M103.104 13.499l2.338 84.572M94.53 100.018l-6.626-83.403" stroke="#1D1D1B" stroke-width="5" stroke-miterlimit="10"/></svg>