<?xml version="1.0" encoding="UTF-8"?>
<svg id="Mathis" xmlns="http://www.w3.org/2000/svg" viewBox="0 0 400 400">
  <defs>
    <style>
      .moi-1 {
        fill: #dfb2ab;
      }

      .moi-2 {
        fill: #4d4d4d;
      }

      .moi-2, .moi-3, .moi-4, .moi-5, .moi-6, .moi-7, .moi-8 {
        stroke-miterlimit: 10;
      }

      .moi-2, .moi-4, .moi-5 {
        stroke: #333;
      }

      .moi-9 {
        fill: #e8344a;
      }

      .moi-3, .moi-5, .moi-6, .moi-7 {
        stroke-width: .5px;
      }

      .moi-3, .moi-5, .moi-7, .moi-8 {
        fill: none;
      }

      .moi-3, .moi-6 {
        stroke: #e6e6e6;
      }

      .moi-4 {
        fill: #333;
      }

      .moi-10 {
        fill: #fff;
      }

      .moi-11 {
        fill: #892536;
      }

      .moi-12 {
        fill: #f7ccad;
      }

      .moi-6 {
        fill: #e6e6e6;
        opacity: .32;
      }

      .moi-7 {
        stroke: #ccc;
      }

      .moi-13 {
        fill: #603813;
      }

      .moi-14 {
        fill: #42210b;
      }

      .moi-8 {
        stroke: #b3b3b3;
      }
    </style>
  </defs>
  <g id="pull">
    <path d="M361,400.45l-18.2-96.13c-6.83-30.17-30.06-41.49-37.41-41.49h-80.09c0,18.75-11.01,33.95-24.59,33.95s-24.59-15.2-24.59-33.95h-77.87c-28.69,0-40.99,47.15-40.99,47.15l-17.3,90.01"/>
    <g>
      <line class="moi-4" x1="166.97" y1="263.78" x2="159.19" y2="263.78"/>
      <line class="moi-4" x1="167.35" y1="267.95" x2="159.63" y2="268.91"/>
      <line class="moi-4" x1="168.24" y1="272.05" x2="160.7" y2="273.95"/>
      <line class="moi-4" x1="169.62" y1="276" x2="162.38" y2="278.82"/>
      <line class="moi-4" x1="171.49" y1="279.75" x2="164.65" y2="283.45"/>
      <line class="moi-4" x1="173.81" y1="283.25" x2="167.48" y2="287.76"/>
      <line class="moi-4" x1="176.54" y1="286.43" x2="170.81" y2="291.69"/>
      <line class="moi-4" x1="179.64" y1="289.24" x2="174.61" y2="295.17"/>
      <line class="moi-4" x1="183.07" y1="291.66" x2="178.81" y2="298.16"/>
      <line class="moi-4" x1="186.76" y1="293.63" x2="183.34" y2="300.61"/>
      <line class="moi-4" x1="190.68" y1="295.13" x2="188.15" y2="302.48"/>
      <line class="moi-4" x1="194.75" y1="296.13" x2="193.14" y2="303.74"/>
      <line class="moi-4" x1="198.91" y1="296.62" x2="198.26" y2="304.37"/>
      <line class="moi-4" x1="203.1" y1="296.6" x2="203.41" y2="304.37"/>
      <line class="moi-4" x1="207.26" y1="296.05" x2="208.53" y2="303.73"/>
      <line class="moi-4" x1="211.31" y1="295" x2="213.52" y2="302.46"/>
      <line class="moi-4" x1="215.21" y1="293.46" x2="218.32" y2="300.58"/>
      <line class="moi-4" x1="218.88" y1="291.44" x2="222.85" y2="298.13"/>
      <line class="moi-4" x1="222.28" y1="288.99" x2="227.05" y2="295.13"/>
      <line class="moi-4" x1="225.35" y1="286.13" x2="230.84" y2="291.64"/>
      <line class="moi-4" x1="228.04" y1="282.92" x2="234.17" y2="287.7"/>
      <line class="moi-4" x1="230.31" y1="279.4" x2="236.99" y2="283.39"/>
      <line class="moi-4" x1="232.14" y1="275.62" x2="239.25" y2="278.76"/>
      <line class="moi-4" x1="233.48" y1="271.65" x2="240.92" y2="273.89"/>
      <line class="moi-4" x1="234.32" y1="267.54" x2="241.98" y2="268.84"/>
      <line class="moi-4" x1="234.64" y1="263.37" x2="242.41" y2="263.71"/>
    </g>
    <line class="moi-8" x1="312.06" y1="399.42" x2="295.94" y2="315.58"/>
  </g>
  <g id="cou">
    <path id="cou-2" data-name="cou" class="moi-1" d="M183.3,230.77h35c9.08,0,16.45,7.37,16.45,16.45v15.61c0,18.74-15.21,33.95-33.95,33.95h0c-18.74,0-33.95-15.21-33.95-33.95v-15.61c0-9.08,7.37-16.45,16.45-16.45Z"/>
    <path class="moi-3" d="M236.63,262.47c0,9.57-16.04,17.34-35.83,17.34s-35.83-7.76-35.83-17.34,71.67-9.57,71.67,0Z"/>
    <path class="moi-1" d="M174.65,230.77h52.3c4.3,0,7.8,3.49,7.8,7.8v21.03c0,6.99-5.67,12.66-12.66,12.66h-42.57c-6.99,0-12.66-5.67-12.66-12.66v-21.03c0-4.3,3.49-7.8,7.8-7.8Z"/>
  </g>
  <g id="visage">
    <path class="moi-12" d="M162.93,77.64h77.63c23.86,0,43.22,19.37,43.22,43.22v50.51c0,45.28-36.76,82.04-82.04,82.04h0c-45.28,0-82.04-36.76-82.04-82.04v-50.51c0-23.86,19.37-43.22,43.22-43.22Z"/>
    <path class="moi-1" d="M119.71,123.27c-12.5,0-22.63,10.13-22.63,22.63s10.13,22.63,22.63,22.63v-45.26Z"/>
    <path class="moi-1" d="M283.78,123.27v45.26c12.5,0,22.63-10.13,22.63-22.63s-10.13-22.63-22.63-22.63Z"/>
  </g>
  <g id="cheveux">
    <ellipse class="moi-14" cx="271.05" cy="85.48" rx="5.24" ry="20.75" transform="translate(.75 173.29) rotate(-35.5)"/>
    <ellipse class="moi-14" cx="265.4" cy="87.36" rx="5.24" ry="20.75" transform="translate(-1.4 170.36) rotate(-35.5)"/>
    <ellipse class="moi-14" cx="261.62" cy="93.02" rx="5.24" ry="20.75" transform="translate(-5.38 169.22) rotate(-35.5)"/>
    <ellipse class="moi-14" cx="250.31" cy="91.13" rx="5.24" ry="20.75" transform="translate(-6.39 162.3) rotate(-35.5)"/>
    <ellipse class="moi-14" cx="246.54" cy="93.02" rx="5.24" ry="20.75" transform="translate(-8.19 160.46) rotate(-35.5)"/>
    <ellipse class="moi-14" cx="229.56" cy="91.13" rx="5.24" ry="20.75" transform="translate(-10.25 150.25) rotate(-35.5)"/>
    <ellipse class="moi-14" cx="237.11" cy="91.13" rx="5.24" ry="20.75" transform="translate(-8.85 154.63) rotate(-35.5)"/>
    <ellipse class="moi-14" cx="222.02" cy="91.13" rx="5.24" ry="20.75" transform="translate(-11.65 145.87) rotate(-35.5)"/>
    <ellipse class="moi-14" cx="214.48" cy="91.13" rx="5.24" ry="20.75" transform="translate(-13.05 141.49) rotate(-35.5)"/>
    <ellipse class="moi-14" cx="208.82" cy="96.79" rx="5.24" ry="20.75" transform="translate(-17.39 139.25) rotate(-35.5)"/>
    <ellipse class="moi-14" cx="197.5" cy="94.91" rx="5.24" ry="20.75" transform="translate(-18.4 132.33) rotate(-35.5)"/>
    <ellipse class="moi-14" cx="189.96" cy="94.91" rx="5.24" ry="20.75" transform="translate(-19.8 127.95) rotate(-35.5)"/>
    <ellipse class="moi-14" cx="193.73" cy="83.59" rx="5.24" ry="20.75" transform="translate(-12.53 128.04) rotate(-35.5)"/>
    <ellipse class="moi-14" cx="184.3" cy="91.13" rx="5.24" ry="20.75" transform="translate(-18.29 56.1) rotate(-16.5)"/>
    <ellipse class="moi-14" cx="178.64" cy="93.02" rx="5.24" ry="20.75" transform="translate(-19.06 54.57) rotate(-16.5)"/>
    <ellipse class="moi-14" cx="171.1" cy="93.02" rx="5.24" ry="20.75" transform="translate(-17.59 44.81) rotate(-14.2)"/>
    <ellipse class="moi-14" cx="163.56" cy="93.02" rx="5.24" ry="20.75" transform="translate(-17.82 42.96) rotate(-14.2)"/>
    <ellipse class="moi-14" cx="159.78" cy="93.02" rx="5.24" ry="20.75" transform="translate(-17.94 42.04) rotate(-14.2)"/>
    <ellipse class="moi-14" cx="156.01" cy="93.02" rx="5.24" ry="20.75" transform="translate(-18.05 41.11) rotate(-14.2)"/>
    <ellipse class="moi-14" cx="148.47" cy="93.02" rx="5.24" ry="20.75" transform="translate(-18.28 39.26) rotate(-14.2)"/>
    <ellipse class="moi-14" cx="140.92" cy="89.25" rx="5.24" ry="20.75" transform="translate(-17.59 37.3) rotate(-14.2)"/>
    <path class="moi-14" d="M119.74,109.98l5.68.23c-.07,1.65-.19,3.28-.36,4.88-.87,8.07-2.94,14.16-5.25,15.39l-.07-20.5Z"/>
    <ellipse class="moi-14" cx="131.49" cy="93.02" rx="5.24" ry="20.75" transform="translate(-18.8 35.1) rotate(-14.2)"/>
    <path class="moi-14" d="M125.84,91.13l5.08-1.29c2.79,11.03,2.8,20.69,0,21.4s-7.21-7.46-10.02-18.25l4.93-1.86Z"/>
    <path class="moi-14" d="M122.06,91.13l5.08-1.29c2.79,11.03,2.8,20.69,0,21.4-2.03.51-5.09-3.84-7.76-11.02l2.67-9.09Z"/>
    <path class="moi-14" d="M118.29,93.02l5.08-1.29c2.79,11.03,2.8,20.69,0,21.4-1.05.27-2.4-.76-3.86-2.94l-1.23-17.17Z"/>
    <path class="moi-14" d="M283.94,100.93l-5.68.23c.07,1.65.19,3.28.36,4.88.87,8.07,2.94,14.16,5.25,15.39l.07-20.5Z"/>
  </g>
  <g id="yeux">
    <path id="oeil" class="moi-13" d="M226.32,138.36h22.52c.55,0,1,.45,1,1v2.67c0,6.07-4.93,11-11,11h-2.52c-6.07,0-11-4.93-11-11v-2.67c0-.55.45-1,1-1Z"/>
    <path id="oeil-2" data-name="oeil" class="moi-13" d="M152.77,138.36h22.52c.55,0,1,.45,1,1v2.67c0,6.07-4.93,11-11,11h-2.52c-6.07,0-11-4.93-11-11v-2.67c0-.55.45-1,1-1Z"/>
  </g>
  <g id="casquette">
    <path class="moi-2" d="M204.89,19.55h-5.66c-44.79,0-81.09,36.31-81.09,81.09h0s167.85,0,167.85,0h0c0-44.79-36.31-81.1-81.1-81.1ZM178.17,98.76c0-8.33,7.04-15.09,15.72-15.09h15.72c8.68,0,15.72,6.75,15.72,15.09h-47.15Z"/>
    <path class="moi-5" d="M186.17,22.38h31.16c22.63,0,41,18.37,41,41v36.32h-113.16v-36.32c0-22.63,18.37-41,41-41Z"/>
    <line class="moi-5" x1="201.74" y1="82.73" x2="202.06" y2="22.38"/>
  </g>
  <g id="sourcils">
    <rect id="sourcil_gauche" class="moi-14" x="150.82" y="123.3" width="25.78" height="5.81" rx="2.9" ry="2.9" transform="translate(-19.43 30.35) rotate(-10)"/>
    <rect id="sourcil_droite" class="moi-14" x="226.29" y="123.3" width="25.71" height="5.81" rx="2.9" ry="2.9" transform="translate(25.55 -39.61) rotate(10)"/>
  </g>
  <g id="lunettes">
    <path id="ver_gauche" class="moi-6" d="M145.59,131.76h34.98c2.32,0,4.2,1.88,4.2,4.2v13.09c0,3.99-3.24,7.23-7.23,7.23h-28.92c-3.99,0-7.23-3.24-7.23-7.23v-13.09c0-2.32,1.88-4.2,4.2-4.2Z"/>
    <path id="ver_droite" class="moi-6" d="M221.03,131.76h34.98c2.32,0,4.2,1.88,4.2,4.2v13.09c0,3.99-3.24,7.23-7.23,7.23h-28.92c-3.99,0-7.23-3.24-7.23-7.23v-13.09c0-2.32,1.88-4.2,4.2-4.2Z"/>
    <path id="coutour_ver_droite" class="moi-7" d="M221.03,131.76h34.98c2.32,0,4.2,1.88,4.2,4.2v13.09c0,3.99-3.24,7.23-7.23,7.23h-28.92c-3.99,0-7.23-3.24-7.23-7.23v-13.09c0-2.32,1.88-4.2,4.2-4.2Z"/>
    <path id="coutour_ver_gauche" class="moi-7" d="M145.59,131.76h34.98c2.32,0,4.2,1.88,4.2,4.2v13.09c0,3.99-3.24,7.23-7.23,7.23h-28.92c-3.99,0-7.23-3.24-7.23-7.23v-13.09c0-2.32,1.88-4.2,4.2-4.2Z"/>
    <path id="branche_mid" class="moi-7" d="M184.65,138.36c10.73-3.41,21.45-3.41,32.18,0"/>
    <line id="branche_gauche" class="moi-7" x1="141.39" y1="139.3" x2="118.76" y2="122.33"/>
    <line id="branche_droite" class="moi-7" x1="260.21" y1="137.42" x2="284.73" y2="122.33"/>
  </g>
  <rect id="nez" class="moi-1" x="204.57" y="159.11" width="1.89" height="13.2" rx=".5" ry=".5"/>
  <g id="bouche">
    <path id="fond_bouche" class="moi-11" d="M175.92,205.2h51.66c.83,0,1.51.68,1.51,1.51v.63c0,13.52-10.98,24.5-24.5,24.5h-5.67c-13.52,0-24.5-10.98-24.5-24.5v-.63c0-.83.68-1.51,1.51-1.51Z"/>
    <path id="langue" class="moi-9" d="M188.79,229.65c3.07,1.39,6.47,2.18,10.06,2.18h5.78c3.13,0,6.11-.61,8.86-1.68-.94-3.02-6.15-5.33-12.45-5.33-5.94,0-10.92,2.06-12.25,4.83Z"/>
    <path id="dents" class="moi-10" d="M177.21,205.2h47.66v3.12c0,1.37-1.11,2.48-2.48,2.48h-42.69c-1.37,0-2.48-1.11-2.48-2.48v-3.12h0Z"/>
  </g>
  <g id="grains">
    <circle id="grain" class="moi-13" cx="146.11" cy="204.37" r="1.89"/>
    <circle id="grain-2" data-name="grain" class="moi-13" cx="255.49" cy="177.97" r="1.89"/>
  </g>
  <line class="moi-8" x1="116.5" y1="317.5" x2="100" y2="400"/>
</svg>